<?xml version="1.0" standalone="no"?>
<!DOCTYPE svg PUBLIC "-//W3C//DTD SVG 20010904//EN"
 "http://www.w3.org/TR/2001/REC-SVG-20010904/DTD/svg10.dtd">
<svg version="1.0" xmlns="http://www.w3.org/2000/svg"
 width="657.000000pt" height="657.000000pt" viewBox="0 0 657.000000 657.000000"
 preserveAspectRatio="xMidYMid meet">
<metadata>
Created by potrace 1.14, written by Peter Selinger 2001-2017
</metadata>
<g transform="translate(0.000000,657.000000) scale(0.100000,-0.100000)"
fill="#000000" stroke="none">
<path d="M3198 5185 c-2 -1 -93 -5 -203 -8 -110 -4 -210 -9 -222 -11 -12 -3
-53 -8 -90 -11 -37 -4 -75 -9 -84 -10 -9 -2 -40 -6 -70 -10 -271 -33 -829
-186 -859 -235 -7 -12 -3 -1986 4 -2060 10 -100 16 -129 42 -212 60 -188 168
-356 329 -507 89 -83 173 -142 325 -228 206 -116 878 -437 911 -435 9 0 46 14
82 31 37 17 68 31 70 31 3 0 56 24 118 53 63 30 177 82 254 117 291 133 505
253 640 363 111 90 285 283 285 317 0 5 4 10 8 10 9 0 32 44 72 141 30 72 58
182 68 269 4 30 7 518 7 1085 l0 1030 -37 17 c-100 47 -444 149 -583 173 -43
7 -146 25 -175 31 -84 16 -376 46 -490 50 -198 7 -399 11 -402 9z"/>
</g>
</svg>
